<?xml version="1.0" standalone="no"?>
<!DOCTYPE svg PUBLIC "-//W3C//DTD SVG 20010904//EN"
 "http://www.w3.org/TR/2001/REC-SVG-20010904/DTD/svg10.dtd">
<svg version="1.0" xmlns="http://www.w3.org/2000/svg"
 width="325.000000pt" height="325.000000pt" viewBox="0 0 325.000000 325.000000"
 preserveAspectRatio="xMidYMid meet">
<metadata>
Created by potrace 1.16, written by Peter Selinger 2001-2019
</metadata>
<g transform="translate(0.000000,325.000000) scale(0.100000,-0.100000)"
fill="#000000" stroke="none">
<path d="M1080 2707 c0 -1 -92 -463 -205 -1027 -113 -564 -205 -1030 -205
-1037 0 -10 64 -13 298 -13 l297 0 204 1023 c113 562 207 1030 209 1040 4 16
-15 17 -297 17 -165 0 -301 -1 -301 -3z"/>
<path d="M1970 2707 c0 -1 -92 -463 -205 -1027 -113 -564 -205 -1030 -205
-1037 0 -10 64 -13 298 -13 l297 0 204 1023 c113 562 207 1030 209 1040 4 16
-15 17 -297 17 -165 0 -301 -1 -301 -3z"/>
</g>
</svg>
