<svg height="325pt" preserveAspectRatio="xMidYMid meet" viewBox="0 0 325 325" width="325pt" xmlns="http://www.w3.org/2000/svg"><g transform="matrix(.1 0 0 -.1 0 325)"><path d="m1085 2698c-2-7-95-467-205-1023-111-555-203-1018-206-1027-5-17 13-18 290-18 163 0 296 1 296 3 0 1 92 463 205 1027s205 1030 205 1037c0 19-579 19-585 1z"/><path d="m1975 2698c-2-7-95-467-205-1023-111-555-203-1018-206-1027-5-17 13-18 290-18 163 0 296 1 296 3 0 1 92 463 205 1027s205 1030 205 1037c0 19-579 19-585 1z"/></g></svg>